<svg xmlns="http://www.w3.org/2000/svg" xmlns:xlink="http://www.w3.org/1999/xlink" width="1000" zoomAndPan="magnify" viewBox="0 0 750 749.999995" height="1000" preserveAspectRatio="xMidYMid meet" version="1.0"><defs><clipPath id="23226ecb2a"><path d="M 2.726562 2.71875 L 747.160156 2.71875 L 747.160156 747.160156 L 2.726562 747.160156 Z M 2.726562 2.71875 " clip-rule="nonzero"/></clipPath><clipPath id="92c4b15623"><path d="M 747.160156 233.71875 L 747.160156 516.160156 C 747.160156 577.421875 722.824219 636.183594 679.5 679.5 C 636.183594 722.820312 577.429688 747.160156 516.160156 747.160156 L 233.726562 747.160156 C 172.457031 747.160156 113.703125 722.820312 70.382812 679.5 C 27.058594 636.183594 2.726562 577.421875 2.726562 516.160156 L 2.726562 233.71875 C 2.726562 172.457031 27.058594 113.703125 70.382812 70.378906 C 113.703125 27.058594 172.457031 2.71875 233.726562 2.71875 L 516.160156 2.71875 C 577.429688 2.71875 636.183594 27.058594 679.5 70.378906 C 722.824219 113.703125 747.160156 172.457031 747.160156 233.71875 Z M 747.160156 233.71875 " clip-rule="nonzero"/></clipPath><clipPath id="fead8c12fd"><path d="M 747.160156 233.71875 L 747.160156 516.160156 C 747.160156 577.421875 722.824219 636.183594 679.5 679.5 C 636.183594 722.820312 577.429688 747.160156 516.160156 747.160156 L 233.726562 747.160156 C 172.457031 747.160156 113.703125 722.820312 70.382812 679.5 C 27.058594 636.183594 2.726562 577.421875 2.726562 516.160156 L 2.726562 233.71875 C 2.726562 172.457031 27.058594 113.703125 70.382812 70.378906 C 113.703125 27.058594 172.457031 2.71875 233.726562 2.71875 L 516.160156 2.71875 C 577.429688 2.71875 636.183594 27.058594 679.5 70.378906 C 722.824219 113.703125 747.160156 172.457031 747.160156 233.71875 Z M 747.160156 233.71875 " clip-rule="nonzero"/></clipPath><clipPath id="03e5f112ef"><path d="M 2.726562 2.71875 L 747.160156 2.71875 L 747.160156 747.152344 L 2.726562 747.152344 Z M 2.726562 2.71875 " clip-rule="nonzero"/></clipPath><clipPath id="aabd37c8e3"><path d="M 747.160156 233.71875 L 747.160156 516.152344 C 747.160156 577.421875 722.820312 636.175781 679.5 679.496094 C 636.175781 722.8125 577.421875 747.152344 516.160156 747.152344 L 233.71875 747.152344 C 172.457031 747.152344 113.703125 722.8125 70.382812 679.496094 C 27.058594 636.175781 2.726562 577.421875 2.726562 516.152344 L 2.726562 233.71875 C 2.726562 172.457031 27.058594 113.703125 70.382812 70.378906 C 113.703125 27.058594 172.457031 2.71875 233.71875 2.71875 L 516.160156 2.71875 C 577.421875 2.71875 636.175781 27.058594 679.5 70.378906 C 722.820312 113.703125 747.160156 172.457031 747.160156 233.71875 Z M 747.160156 233.71875 " clip-rule="nonzero"/></clipPath><clipPath id="d3df7a0a02"><path d="M 82.070312 459.828125 L 654.542969 459.828125 L 654.542969 717.503906 L 82.070312 717.503906 Z M 82.070312 459.828125 " clip-rule="nonzero"/></clipPath><clipPath id="9edcde77c5"><path d="M 654.488281 575.328125 L 654.488281 602.003906 C 654.488281 632.632812 642.320312 662.015625 620.664062 683.675781 C 599 705.332031 569.621094 717.503906 538.988281 717.503906 L 197.570312 717.503906 C 166.941406 717.503906 137.558594 705.332031 115.898438 683.675781 C 94.242188 662.015625 82.070312 632.632812 82.070312 602.003906 L 82.070312 575.328125 C 82.070312 544.699219 94.242188 515.324219 115.898438 493.660156 C 137.558594 472 166.941406 459.828125 197.570312 459.828125 L 538.988281 459.828125 C 569.621094 459.828125 599 472 620.664062 493.660156 C 642.320312 515.324219 654.488281 544.699219 654.488281 575.328125 Z M 654.488281 575.328125 " clip-rule="nonzero"/></clipPath><clipPath id="56a7ca6940"><path d="M 654.488281 575.328125 L 654.488281 602.003906 C 654.488281 632.632812 642.320312 662.015625 620.664062 683.675781 C 599 705.332031 569.621094 717.503906 538.988281 717.503906 L 197.570312 717.503906 C 166.941406 717.503906 137.558594 705.332031 115.898438 683.675781 C 94.242188 662.015625 82.070312 632.632812 82.070312 602.003906 L 82.070312 575.328125 C 82.070312 544.699219 94.242188 515.324219 115.898438 493.660156 C 137.558594 472 166.941406 459.828125 197.570312 459.828125 L 538.988281 459.828125 C 569.621094 459.828125 599 472 620.664062 493.660156 C 642.320312 515.324219 654.488281 544.699219 654.488281 575.328125 Z M 654.488281 575.328125 " clip-rule="nonzero"/></clipPath><clipPath id="fb9b007adc"><path d="M 433.546875 172.476562 L 544.457031 172.476562 L 544.457031 283.386719 L 433.546875 283.386719 Z M 433.546875 172.476562 " clip-rule="nonzero"/></clipPath><clipPath id="3ffed0504d"><path d="M 489.003906 172.476562 C 458.375 172.476562 433.546875 197.300781 433.546875 227.925781 C 433.546875 258.558594 458.375 283.386719 489.003906 283.386719 C 519.628906 283.386719 544.457031 258.558594 544.457031 227.925781 C 544.457031 197.300781 519.628906 172.476562 489.003906 172.476562 Z M 489.003906 172.476562 " clip-rule="nonzero"/></clipPath><clipPath id="91481ae2e2"><path d="M 489.003906 172.476562 C 458.375 172.476562 433.546875 197.300781 433.546875 227.925781 C 433.546875 258.558594 458.375 283.386719 489.003906 283.386719 C 519.628906 283.386719 544.457031 258.558594 544.457031 227.925781 C 544.457031 197.300781 519.628906 172.476562 489.003906 172.476562 Z M 489.003906 172.476562 " clip-rule="nonzero"/></clipPath><clipPath id="8680bd85ab"><path d="M 341.265625 99.972656 L 408.617188 99.972656 L 408.617188 167.332031 L 341.265625 167.332031 Z M 341.265625 99.972656 " clip-rule="nonzero"/></clipPath><clipPath id="62356f7c58"><path d="M 374.941406 99.972656 C 356.34375 99.972656 341.265625 115.054688 341.265625 133.648438 C 341.265625 152.25 356.34375 167.332031 374.941406 167.332031 C 393.542969 167.332031 408.617188 152.25 408.617188 133.648438 C 408.617188 115.054688 393.542969 99.972656 374.941406 99.972656 Z M 374.941406 99.972656 " clip-rule="nonzero"/></clipPath><clipPath id="73503576d1"><path d="M 374.941406 99.972656 C 356.34375 99.972656 341.265625 115.054688 341.265625 133.648438 C 341.265625 152.25 356.34375 167.332031 374.941406 167.332031 C 393.542969 167.332031 408.617188 152.25 408.617188 133.648438 C 408.617188 115.054688 393.542969 99.972656 374.941406 99.972656 Z M 374.941406 99.972656 " clip-rule="nonzero"/></clipPath><clipPath id="4e2b3eac6c"><path d="M 199.40625 191.828125 L 382.523438 191.828125 L 382.523438 374.941406 L 199.40625 374.941406 Z M 199.40625 191.828125 " clip-rule="nonzero"/></clipPath><clipPath id="9390a07b4f"><path d="M 290.964844 191.828125 C 240.398438 191.828125 199.40625 232.816406 199.40625 283.386719 C 199.40625 333.953125 240.398438 374.941406 290.964844 374.941406 C 341.527344 374.941406 382.523438 333.953125 382.523438 283.386719 C 382.523438 232.816406 341.527344 191.828125 290.964844 191.828125 Z M 290.964844 191.828125 " clip-rule="nonzero"/></clipPath><clipPath id="f7679839c5"><path d="M 290.964844 191.828125 C 240.398438 191.828125 199.40625 232.816406 199.40625 283.386719 C 199.40625 333.953125 240.398438 374.941406 290.964844 374.941406 C 341.527344 374.941406 382.523438 333.953125 382.523438 283.386719 C 382.523438 232.816406 341.527344 191.828125 290.964844 191.828125 Z M 290.964844 191.828125 " clip-rule="nonzero"/></clipPath><clipPath id="8294795766"><path d="M 50.207031 355 L 697.007812 355 L 697.007812 635.898438 L 50.207031 635.898438 Z M 50.207031 355 " clip-rule="nonzero"/></clipPath><clipPath id="0104c566a9"><path d="M 411.824219 564.832031 L 468.328125 564.832031 L 468.328125 621.332031 L 411.824219 621.332031 Z M 411.824219 564.832031 " clip-rule="nonzero"/></clipPath><clipPath id="b2649c9f26"><path d="M 440.078125 564.832031 C 424.476562 564.832031 411.824219 577.484375 411.824219 593.082031 C 411.824219 608.6875 424.476562 621.332031 440.078125 621.332031 C 455.679688 621.332031 468.328125 608.6875 468.328125 593.082031 C 468.328125 577.484375 455.679688 564.832031 440.078125 564.832031 Z M 440.078125 564.832031 " clip-rule="nonzero"/></clipPath><clipPath id="ec9d27982c"><path d="M 440.078125 564.832031 C 424.476562 564.832031 411.824219 577.484375 411.824219 593.082031 C 411.824219 608.6875 424.476562 621.332031 440.078125 621.332031 C 455.679688 621.332031 468.328125 608.6875 468.328125 593.082031 C 468.328125 577.484375 455.679688 564.832031 440.078125 564.832031 Z M 440.078125 564.832031 " clip-rule="nonzero"/></clipPath><clipPath id="b444326264"><path d="M 348.839844 480.738281 L 383.152344 480.738281 L 383.152344 515.050781 L 348.839844 515.050781 Z M 348.839844 480.738281 " clip-rule="nonzero"/></clipPath><clipPath id="0943af2064"><path d="M 365.996094 480.738281 C 356.523438 480.738281 348.839844 488.421875 348.839844 497.894531 C 348.839844 507.371094 356.523438 515.050781 365.996094 515.050781 C 375.472656 515.050781 383.152344 507.371094 383.152344 497.894531 C 383.152344 488.421875 375.472656 480.738281 365.996094 480.738281 Z M 365.996094 480.738281 " clip-rule="nonzero"/></clipPath><clipPath id="307327eb31"><path d="M 365.996094 480.738281 C 356.523438 480.738281 348.839844 488.421875 348.839844 497.894531 C 348.839844 507.371094 356.523438 515.050781 365.996094 515.050781 C 375.472656 515.050781 383.152344 507.371094 383.152344 497.894531 C 383.152344 488.421875 375.472656 480.738281 365.996094 480.738281 Z M 365.996094 480.738281 " clip-rule="nonzero"/></clipPath><clipPath id="36e65ba38b"><path d="M 468.328125 459.828125 L 544.457031 459.828125 L 544.457031 535.960938 L 468.328125 535.960938 Z M 468.328125 459.828125 " clip-rule="nonzero"/></clipPath><clipPath id="ada5e0bfb1"><path d="M 506.390625 459.828125 C 485.371094 459.828125 468.328125 476.871094 468.328125 497.894531 C 468.328125 518.921875 485.371094 535.960938 506.390625 535.960938 C 527.414062 535.960938 544.457031 518.921875 544.457031 497.894531 C 544.457031 476.871094 527.414062 459.828125 506.390625 459.828125 Z M 506.390625 459.828125 " clip-rule="nonzero"/></clipPath><clipPath id="f71402edff"><path d="M 506.390625 459.828125 C 485.371094 459.828125 468.328125 476.871094 468.328125 497.894531 C 468.328125 518.921875 485.371094 535.960938 506.390625 535.960938 C 527.414062 535.960938 544.457031 518.921875 544.457031 497.894531 C 544.457031 476.871094 527.414062 459.828125 506.390625 459.828125 Z M 506.390625 459.828125 " clip-rule="nonzero"/></clipPath><clipPath id="fc1f4ca89e"><path d="M 199.40625 515.050781 L 246.898438 515.050781 L 246.898438 562.546875 L 199.40625 562.546875 Z M 199.40625 515.050781 " clip-rule="nonzero"/></clipPath><clipPath id="96423327d1"><path d="M 223.148438 515.050781 C 210.035156 515.050781 199.40625 525.6875 199.40625 538.800781 C 199.40625 551.917969 210.035156 562.546875 223.148438 562.546875 C 236.265625 562.546875 246.898438 551.917969 246.898438 538.800781 C 246.898438 525.6875 236.265625 515.050781 223.148438 515.050781 Z M 223.148438 515.050781 " clip-rule="nonzero"/></clipPath><clipPath id="7657316ed0"><path d="M 223.148438 515.050781 C 210.035156 515.050781 199.40625 525.6875 199.40625 538.800781 C 199.40625 551.917969 210.035156 562.546875 223.148438 562.546875 C 236.265625 562.546875 246.898438 551.917969 246.898438 538.800781 C 246.898438 525.6875 236.265625 515.050781 223.148438 515.050781 Z M 223.148438 515.050781 " clip-rule="nonzero"/></clipPath></defs><g clip-path="url(#23226ecb2a)"><g clip-path="url(#92c4b15623)"><g clip-path="url(#fead8c12fd)"><path fill="#ffffff" d="M 2.726562 2.71875 L 747.160156 2.71875 L 747.160156 747.160156 L 2.726562 747.160156 Z M 2.726562 2.71875 " fill-opacity="1" fill-rule="nonzero"/></g></g></g><g clip-path="url(#03e5f112ef)"><g clip-path="url(#aabd37c8e3)"><path stroke-linecap="butt" transform="matrix(1.155, 0, 0, 1.155, 2.723059, 2.720821)" fill="none" stroke-linejoin="miter" d="M 644.534449 199.998259 L 644.534449 444.529571 C 644.534449 497.576798 623.460985 548.445994 585.954212 585.952768 C 548.444056 623.456159 497.57486 644.529623 444.534397 644.529623 L 199.99632 644.529623 C 146.955858 644.529623 96.086662 623.456159 58.579888 585.952768 C 21.069732 548.445994 0.0030332 497.576798 0.0030332 444.529571 L 0.0030332 199.998259 C 0.0030332 146.957796 21.069732 96.0886 58.579888 58.578444 C 96.086662 21.07167 146.955858 -0.00179277 199.99632 -0.00179277 L 444.534397 -0.00179277 C 497.57486 -0.00179277 548.444056 21.07167 585.954212 58.578444 C 623.460985 96.0886 644.534449 146.957796 644.534449 199.998259 Z M 644.534449 199.998259 " stroke="#4a92ff" stroke-width="96" stroke-opacity="1" stroke-miterlimit="4"/></g></g><g clip-path="url(#d3df7a0a02)"><g clip-path="url(#9edcde77c5)"><g clip-path="url(#56a7ca6940)"><path fill="#4a92ff" d="M 82.070312 459.828125 L 654.789062 459.828125 L 654.789062 717.503906 L 82.070312 717.503906 Z M 82.070312 459.828125 " fill-opacity="1" fill-rule="nonzero"/></g></g></g><g clip-path="url(#fb9b007adc)"><g clip-path="url(#3ffed0504d)"><g clip-path="url(#91481ae2e2)"><path fill="#4a92ff" d="M 433.546875 172.476562 L 544.457031 172.476562 L 544.457031 283.386719 L 433.546875 283.386719 Z M 433.546875 172.476562 " fill-opacity="1" fill-rule="nonzero"/></g></g></g><g clip-path="url(#8680bd85ab)"><g clip-path="url(#62356f7c58)"><g clip-path="url(#73503576d1)"><path fill="#4a92ff" d="M 341.265625 99.972656 L 408.617188 99.972656 L 408.617188 167.332031 L 341.265625 167.332031 Z M 341.265625 99.972656 " fill-opacity="1" fill-rule="nonzero"/></g></g></g><g clip-path="url(#4e2b3eac6c)"><g clip-path="url(#9390a07b4f)"><g clip-path="url(#f7679839c5)"><path fill="#4a92ff" d="M 199.40625 191.828125 L 382.523438 191.828125 L 382.523438 374.941406 L 199.40625 374.941406 Z M 199.40625 191.828125 " fill-opacity="1" fill-rule="nonzero"/></g></g></g><g clip-path="url(#8294795766)"><path fill="#4a92ff" d="M 628.542969 372.832031 C 595.933594 359.957031 560.511719 351.800781 525.371094 356.925781 C 489.800781 362.125 457.773438 378.574219 425.871094 394.1875 C 365.304688 423.84375 294.605469 450.265625 227.007812 429.414062 C 194.40625 419.355469 165.84375 399.449219 134.691406 386.015625 C 103.191406 372.410156 69.367188 363.890625 35.136719 361.371094 C -12.765625 357.851562 -65.917969 365.539062 -104.648438 394.089844 L -104.648438 717.449219 L 787.191406 717.449219 L 787.191406 413.472656 C 735.566406 430.925781 675.160156 391.226562 628.542969 372.832031 Z M 628.542969 372.832031 " fill-opacity="1" fill-rule="nonzero"/></g><g clip-path="url(#0104c566a9)"><g clip-path="url(#b2649c9f26)"><g clip-path="url(#ec9d27982c)"><path fill="#ffffff" d="M 411.824219 564.832031 L 468.328125 564.832031 L 468.328125 621.332031 L 411.824219 621.332031 Z M 411.824219 564.832031 " fill-opacity="1" fill-rule="nonzero"/></g></g></g><g clip-path="url(#b444326264)"><g clip-path="url(#0943af2064)"><g clip-path="url(#307327eb31)"><path fill="#ffffff" d="M 348.839844 480.738281 L 383.152344 480.738281 L 383.152344 515.050781 L 348.839844 515.050781 Z M 348.839844 480.738281 " fill-opacity="1" fill-rule="nonzero"/></g></g></g><g clip-path="url(#36e65ba38b)"><g clip-path="url(#ada5e0bfb1)"><g clip-path="url(#f71402edff)"><path fill="#ffffff" d="M 468.328125 459.828125 L 544.457031 459.828125 L 544.457031 535.960938 L 468.328125 535.960938 Z M 468.328125 459.828125 " fill-opacity="1" fill-rule="nonzero"/></g></g></g><g clip-path="url(#fc1f4ca89e)"><g clip-path="url(#96423327d1)"><g clip-path="url(#7657316ed0)"><path fill="#ffffff" d="M 199.40625 515.050781 L 246.898438 515.050781 L 246.898438 562.546875 L 199.40625 562.546875 Z M 199.40625 515.050781 " fill-opacity="1" fill-rule="nonzero"/></g></g></g></svg>